<svg width="120" height="26" viewBox="0 0 120 26" fill="none" xmlns="http://www.w3.org/2000/svg">
<path d="M119.8 11.5508V9.4474H117.188V6.17754L117.1 6.20461L114.647 6.95524L114.598 6.96993V9.44757H110.726V8.0673C110.726 7.42462 110.87 6.93279 111.153 6.60479C111.434 6.28073 111.836 6.11599 112.349 6.11599C112.719 6.11599 113.101 6.20287 113.485 6.37422L113.581 6.41726V4.20214L113.536 4.18549C113.177 4.0566 112.69 3.9917 112.085 3.9917C111.323 3.9917 110.631 4.15749 110.028 4.48606C109.424 4.8151 108.949 5.28483 108.616 5.88205C108.284 6.47857 108.116 7.16754 108.116 7.92998V9.4474H106.297V11.5508H108.116V20.4118H110.726V11.5508H114.598V17.1818C114.598 19.5009 115.692 20.6762 117.85 20.6762C118.205 20.6762 118.577 20.6346 118.959 20.5533C119.346 20.4698 119.61 20.3864 119.765 20.2973L119.8 20.2769V18.1541L119.694 18.2243C119.552 18.3188 119.375 18.3959 119.169 18.4533C118.961 18.5117 118.788 18.541 118.654 18.541C118.147 18.541 117.774 18.4048 117.542 18.1361C117.308 17.8649 117.188 17.3907 117.188 16.7272V11.5508H119.8ZM100.466 18.5413C99.5184 18.5413 98.7713 18.2271 98.2444 17.6081C97.7149 16.986 97.4462 16.0992 97.4462 14.9722C97.4462 13.8096 97.7149 12.8997 98.2453 12.2666C98.7722 11.6376 99.5115 11.3184 100.445 11.3184C101.35 11.3184 102.071 11.6233 102.587 12.2251C103.106 12.8299 103.369 13.7325 103.369 14.9087C103.369 16.0993 103.121 17.0139 102.633 17.6257C102.149 18.2329 101.419 18.5413 100.466 18.5413ZM100.582 9.18333C98.7739 9.18333 97.3379 9.71303 96.3143 10.7579C95.2908 11.8029 94.7725 13.2489 94.7725 15.0564C94.7725 16.7731 95.2787 18.1538 96.2779 19.1599C97.2763 20.1662 98.6361 20.6759 100.317 20.6759C102.07 20.6759 103.477 20.1388 104.501 19.0794C105.524 18.0213 106.043 16.5889 106.043 14.8237C106.043 13.0802 105.556 11.689 104.596 10.6898C103.636 9.69007 102.286 9.18333 100.582 9.18333ZM90.5623 9.18333C89.3325 9.18333 88.3159 9.49784 87.5385 10.1181C86.7565 10.7421 86.3599 11.5604 86.3599 12.5506C86.3599 13.0654 86.4454 13.5226 86.6139 13.9104C86.7834 14.2995 87.0453 14.642 87.3946 14.9296C87.7404 15.2147 88.2734 15.5135 88.9815 15.8174C89.576 16.0621 90.0197 16.2691 90.3014 16.4322C90.5761 16.5921 90.772 16.7528 90.8821 16.9093C90.9895 17.0625 91.0441 17.2722 91.0441 17.5309C91.0441 18.2675 90.4921 18.6259 89.3567 18.6259C88.9364 18.6259 88.4554 18.538 87.9293 18.3647C87.4076 18.194 86.9145 17.944 86.4681 17.6235L86.3596 17.5458V20.0595L86.3994 20.078C86.7689 20.2486 87.2343 20.3924 87.7837 20.5055C88.3315 20.6187 88.8298 20.6764 89.2623 20.6764C90.5961 20.6764 91.6707 20.3603 92.4551 19.7364C93.2446 19.1081 93.6441 18.2705 93.6441 17.246C93.6441 16.5069 93.4292 15.8732 93.0045 15.3621C92.5833 14.8551 91.8519 14.3896 90.8318 13.9782C90.0189 13.6519 89.498 13.3811 89.2831 13.1732C89.0759 12.9723 88.9711 12.6883 88.9711 12.3286C88.9711 12.0098 89.1002 11.7543 89.3671 11.5474C89.6358 11.3395 90.0093 11.2338 90.4782 11.2338C90.9133 11.2338 91.3579 11.3025 91.8007 11.4372C92.2427 11.5719 92.6319 11.7522 92.956 11.9729L93.0626 12.0458V9.66121L93.0219 9.6437C92.722 9.51535 92.3277 9.40554 91.8484 9.31645C91.3717 9.22796 90.9393 9.18333 90.5623 9.18333ZM79.5534 18.5413C78.6059 18.5413 77.8585 18.2271 77.3321 17.6081C76.8022 16.986 76.5343 16.0993 76.5343 14.9722C76.5343 13.8096 76.8025 12.8997 77.3327 12.2666C77.8591 11.6376 78.599 11.3184 79.5325 11.3184C80.4373 11.3184 81.1581 11.6233 81.6744 12.2251C82.1933 12.8299 82.4565 13.7325 82.4565 14.9087C82.4565 16.0993 82.2088 17.0139 81.7205 17.6257C81.2357 18.2329 80.5069 18.5413 79.5534 18.5413ZM79.6697 9.18333C77.8614 9.18333 76.4252 9.71303 75.4018 10.7579C74.3787 11.8029 73.8595 13.2489 73.8595 15.0564C73.8595 16.7738 74.3663 18.1538 75.3652 19.1599C76.3641 20.1662 77.7234 20.6759 79.4052 20.6759C81.1576 20.6759 82.5654 20.1388 83.5888 19.0794C84.6119 18.0213 85.1306 16.5889 85.1306 14.8237C85.1306 13.0802 84.644 11.689 83.6838 10.6898C82.7232 9.69007 81.3726 9.18333 79.6697 9.18333ZM69.8963 11.3463V9.4474H67.3171V20.4116H69.8963V14.803C69.8963 13.8493 70.1125 13.0658 70.5392 12.4741C70.9604 11.8893 71.5218 11.593 72.2071 11.593C72.4395 11.593 72.7003 11.6313 72.9826 11.7071C73.2622 11.7824 73.4647 11.8642 73.584 11.9502L73.6924 12.0289V9.42868L73.6507 9.41074C73.4105 9.30873 73.0707 9.25725 72.6408 9.25725C71.9926 9.25725 71.4127 9.46551 70.9159 9.87553C70.4798 10.2359 70.1647 10.7301 69.9236 11.3463H69.8963ZM62.6985 9.18333C61.5152 9.18333 60.4599 9.437 59.5622 9.93715C58.6627 10.4385 57.967 11.1542 57.4937 12.0642C57.0224 12.9721 56.7832 14.0326 56.7832 15.2152C56.7832 16.2512 57.0152 17.2018 57.4736 18.0397C57.9324 18.879 58.5817 19.5355 59.4036 19.9909C60.2243 20.4457 61.1729 20.6763 62.2232 20.6763C63.4489 20.6763 64.4954 20.4313 65.3344 19.9479L65.3683 19.9285V17.5657L65.2599 17.6449C64.8798 17.9217 64.4551 18.1427 63.9981 18.3019C63.5423 18.4609 63.1266 18.5413 62.7622 18.5413C61.7502 18.5413 60.9378 18.2247 60.3481 17.6004C59.7571 16.9753 59.4575 16.0975 59.4575 14.9929C59.4575 13.8814 59.77 12.9811 60.3858 12.3168C60.9998 11.6545 61.8137 11.3184 62.8048 11.3184C63.6525 11.3184 64.4785 11.6055 65.2601 12.1725L65.3683 12.251V9.76131L65.3333 9.74163C65.0392 9.57705 64.6381 9.44107 64.1401 9.33803C63.6443 9.23515 63.1593 9.18333 62.6985 9.18333ZM55.0069 9.44757H52.4278V20.4116H55.0069V9.44757ZM53.7438 4.7768C53.3193 4.7768 52.949 4.92131 52.6449 5.20766C52.3394 5.49481 52.1845 5.85637 52.1845 6.28304C52.1845 6.70302 52.3376 7.05797 52.6401 7.3375C52.9407 7.61621 53.3121 7.75747 53.7438 7.75747C54.1755 7.75747 54.5483 7.61621 54.8525 7.33796C55.1586 7.05797 55.3139 6.70314 55.3139 6.28304C55.3139 5.87129 55.1628 5.51344 54.8651 5.21923C54.5676 4.92559 54.1903 4.7768 53.7438 4.7768ZM47.3088 8.63861V20.4116H49.9408V5.11244H46.298L41.6675 16.4762L37.174 5.11244H33.3828V20.4114H35.8563V8.63746H35.9412L40.6862 20.4116H42.5528L47.2238 8.63861H47.3088Z" fill="white"/>
<path d="M12.3329 12.1327H0.200195V0H12.3329V12.1327Z" fill="#F1511B"/>
<path d="M25.7291 12.1327H13.5967V0H25.7291V12.1327Z" fill="#80CC28"/>
<path d="M12.3326 25.5335H0.200195V13.4009H12.3326V25.5335Z" fill="#00ADEF"/>
<path d="M25.7291 25.5335H13.5967V13.4009H25.7291V25.5335Z" fill="#FBBC09"/>
</svg>
